<?xml version="1.0"?>
<svg version="1.1" xmlns="http://www.w3.org/2000/svg" xmlns:xlink="http://www.w3.org/1999/xlink" width="512" height="512">
    <desc iVinci="yes" version="4.6" gridStep="20" showGrid="no" snapToGrid="no" codePlatform="0"/>
    <g id="Layer1" name="Layer 1" opacity="1">
        <g id="Shape1">
            <desc shapeID="1" type="0" basicInfo-basicType="0" basicInfo-roundedRectRadius="12" basicInfo-polygonSides="6" basicInfo-starPoints="5" bounding="rect(-212.15,-239.213,424.301,478.425)" text="" font-familyName="" font-pixelSize="20" font-bold="0" font-underline="0" font-alignment="1" strokeStyle="0" markerStart="0" markerEnd="0" shadowEnabled="0" shadowOffsetX="0" shadowOffsetY="2" shadowBlur="4" shadowOpacity="160" blurEnabled="0" blurRadius="4" transform="matrix(1.00521,0,0,1.00521,253.785,254.893)" pers-center="0,-0.000518799" pers-size="476.887,0" pers-start="0,0" pers-end="0,0" locked="0" mesh="" flag=""/>
            <path id="shapePath1" d="M253.734,495.352 C260.268,495.352 266.702,493.643 272.331,490.426 L448.544,388.699 C459.903,382.065 467.041,369.7 467.041,356.532 L467.041,153.178 C467.041,139.909 460.004,127.646 448.544,121.011 L272.23,19.1833 C261.173,12.8504 246.397,12.8504 235.239,19.1833 L59.0257,120.91 C47.5663,127.545 40.5299,139.909 40.5299,153.077 L40.5299,356.431 C40.5299,369.7 47.5663,381.965 59.0257,388.598 L165.478,446.385 L251.122,463.085 L75.0089,361.156 C73.3,360.252 72.1942,358.341 72.1942,356.431 L72.1942,153.077 C72.1942,151.167 73.3,149.258 75.0089,148.253 L251.122,46.6255 C252.73,45.7208 254.94,45.7208 256.549,46.6255 L432.762,148.253 C434.471,149.258 435.477,151.067 435.477,153.077 L435.477,356.532 C435.477,358.442 434.371,360.352 432.762,361.257 L256.549,463.085 C255.041,463.989 252.73,463.989 251.122,463.085 L165.478,446.385 L235.239,490.426 C240.868,493.643 247.301,495.352 253.734,495.352 Z" style="stroke:none;fill-rule:evenodd;fill:#FFF;fill-opacity:1;"/>
        </g>
    </g>
    <g id="Layer2" name="Layer 3" opacity="1">
        <g id="Shape2">
            <desc shapeID="2" type="0" basicInfo-basicType="0" basicInfo-roundedRectRadius="12" basicInfo-polygonSides="6" basicInfo-starPoints="5" bounding="rect(-97.6801,-157.2,195.36,314.4)" text="k" font-familyName="Giro" font-pixelSize="480" font-bold="0" font-underline="0" font-alignment="1" strokeStyle="0" markerStart="0" markerEnd="0" shadowEnabled="0" shadowOffsetX="0" shadowOffsetY="2" shadowBlur="4" shadowOpacity="160" blurEnabled="0" blurRadius="4" transform="matrix(1.00521,0,0,1.00521,259.632,251.877)" pers-center="0,0" pers-size="0,0" pers-start="0,0" pers-end="0,0" locked="0" mesh="" flag=""/>
            <path id="shapePath2" d="M357.821,371.778 C357.821,345.241 347.206,290.236 325.976,269.971 C346.724,252.118 357.339,200.491 357.339,175.883 C357.339,168.646 354.926,162.855 350.101,158.031 C345.276,152.724 339.004,150.311 331.765,150.311 C324.529,150.311 318.738,152.724 313.43,158.031 C308.606,162.855 306.193,168.646 306.193,175.883 C306.193,186.016 300.403,225.099 289.306,232.819 C279.656,239.574 270.005,243.434 259.39,244.398 L256.496,244.398 C242.503,244.398 227.546,248.258 212.588,256.462 L212.588,119.43 C212.588,112.676 210.176,106.403 205.35,101.578 C200.525,96.7529 194.253,93.8578 187.015,93.8578 C179.778,93.8578 173.988,96.7529 168.68,101.578 C163.856,106.403 161.443,112.676 161.443,119.43 L161.443,384.324 C161.443,391.561 163.856,397.352 168.68,402.659 C173.988,407.485 179.778,409.896 187.015,409.896 C194.253,409.896 200.525,407.485 205.35,402.659 C210.176,397.352 212.588,391.561 212.588,384.324 L212.588,367.918 C212.588,353.443 219.343,314.844 228.511,307.124 C237.195,299.403 247.81,295.543 259.39,295.543 C272.418,295.543 283.033,299.887 292.201,309.054 C301.368,317.738 306.193,360.681 306.193,373.226 L306.193,384.324 C306.193,391.079 308.606,397.352 313.914,402.176 C318.738,407.485 325.011,409.896 331.765,409.896 C339.004,409.896 345.276,407.485 350.101,402.659 C355.408,397.352 357.821,391.561 357.821,384.324 L357.821,371.778 M343.346,384.324 C343.346,391.561 339.486,394.939 331.765,394.939 C324.529,394.939 321.151,391.561 321.151,384.324 L321.151,372.744 C321.151,356.339 314.878,310.018 302.815,298.439 C290.753,286.859 276.278,281.068 259.39,281.068 C243.95,281.068 230.44,285.894 218.86,296.027 C207.281,306.158 198.596,349.101 198.596,366.471 L198.596,384.324 C198.596,392.044 194.735,395.421 187.015,395.421 C179.778,395.421 176.4,392.044 176.4,384.324 L176.4,119.43 C176.4,112.676 179.778,108.816 187.015,108.816 C194.735,108.816 198.596,112.676 198.596,119.43 L198.596,285.894 C215,267.559 235.266,258.873 259.39,258.873 C274.349,258.873 287.858,253.566 300.403,243.916 C313.43,233.783 320.669,190.841 320.669,175.883 C320.669,168.646 324.045,165.268 331.765,165.268 C339.004,165.268 342.864,168.646 342.864,175.883 C342.864,202.904 328.871,254.531 300.886,269.971 C328.871,285.894 343.346,341.864 343.346,372.262 L343.346,384.324 Z" style="stroke:none;fill-rule:evenodd;fill:#FFF;fill-opacity:1;"/>
        </g>
    </g>
</svg>
